<svg width="20" height="20" viewBox="0 0 20 20" fill="none" xmlns="http://www.w3.org/2000/svg">
<path d="M17.8924 1.63141L18.3686 2.10765C18.8606 2.59963 18.8606 3.3986 18.3686 3.89058L17.3177 4.94145L15.0585 2.68228L16.1134 1.63141C16.6053 1.13943 17.4043 1.13943 17.8963 1.63141H17.8924ZM7.43875 10.3021L14.169 3.57572L16.4282 5.83489L9.69792 12.5652C9.53262 12.7305 9.32008 12.8486 9.0918 12.9037L6.50989 13.498L7.1042 10.9161C7.15537 10.6878 7.27344 10.4753 7.44268 10.3099L7.43875 10.3021ZM15.2199 0.737971L6.54925 9.41258C6.2147 9.74712 5.98249 10.1683 5.87622 10.6288L5.05363 14.1946C5.0064 14.4072 5.06937 14.6276 5.22287 14.7811C5.37636 14.9346 5.59677 14.9975 5.80931 14.9503L9.37519 14.1277C9.83568 14.0215 10.2568 13.7892 10.5914 13.4547L19.262 4.78009C20.246 3.79612 20.246 2.20211 19.262 1.21814L18.7858 0.737971C17.8018 -0.24599 16.2078 -0.24599 15.2239 0.737971H15.2199ZM3.14868 2.36741C1.40903 2.36741 0 3.77644 0 5.51609V16.8513C0 18.591 1.40903 20 3.14868 20H14.4839C16.2236 20 17.6326 18.591 17.6326 16.8513V11.8134C17.6326 11.4671 17.3492 11.1837 17.0029 11.1837C16.6565 11.1837 16.3731 11.4671 16.3731 11.8134V16.8513C16.3731 17.8943 15.5269 18.7405 14.4839 18.7405H3.14868C2.10568 18.7405 1.25947 17.8943 1.25947 16.8513V5.51609C1.25947 4.47309 2.10568 3.62688 3.14868 3.62688H8.18656C8.53291 3.62688 8.81629 3.3435 8.81629 2.99715C8.81629 2.65079 8.53291 2.36741 8.18656 2.36741H3.14868Z" fill="#F2F7F7"/>
</svg>
